<?xml version="1.0" encoding="utf-8"?>
<!-- Generator: Adobe Illustrator 19.1.0, SVG Export Plug-In . SVG Version: 6.00 Build 0)  -->
<svg version="1.1" id="Calque_1" xmlns="http://www.w3.org/2000/svg" xmlns:xlink="http://www.w3.org/1999/xlink" x="0px" y="0px"
	 viewBox="0 0 400 100" style="enable-background:new 0 0 400 100;" xml:space="preserve">
<style type="text/css">
	.st0{fill:#44595D;stroke:#38474B;stroke-width:0.5;stroke-miterlimit:10;}
	.st1{fill:none;}
	.st2{fill:#F7EA77;}
	.st3{fill:#FEF795;}
	.st4{fill:#25BECE;}
	.st5{fill:#50D5E3;}
	.st6{fill:#21A3AA;}
	.st7{fill:#45B9BF;}
</style>
<ellipse class="st0" cx="200" cy="50" rx="4.2" ry="4.2"/>
<line class="st1" x1="199.6" y1="47.5" x2="199.6" y2="47.5"/>
<path class="st2" d="M200,52.9c0.5-1.1,0.9-2.1,1.3-3.1c-0.5,0-0.9,0-1.4,0C199.9,50.9,200,51.9,200,52.9z"/>
<path class="st3" d="M200,52.9c-0.5-1-0.9-2.1-1.4-3.1c0.5,0,0.9,0,1.4,0C200,50.9,200,51.9,200,52.9z"/>
<path class="st4" d="M200,47.3L200,47.3c-0.7,1.8-1.3,3.5-1.4,3.7l0,0c0.5-0.2,0.9-0.4,1.4-0.6C200,49.4,200,48.3,200,47.3z"/>
<path class="st5" d="M200,47L200,47c-0.3,0.4-1.2,2.1-2.1,3.9l0,0c0.7-0.2,1.4-0.5,2.1-0.7C200,49.1,200,48,200,47z"/>
<path class="st6" d="M200,47.3c0.5,1.3,0.9,2.5,1.4,3.8c-0.5-0.2-0.9-0.4-1.4-0.6C200,49.4,200,48.3,200,47.3z"/>
<path class="st7" d="M200,47c0.7,1.3,1.4,2.6,2,3.9c-0.7-0.2-1.4-0.5-2-0.7C200,49.1,200,48,200,47z"/>
</svg>
